<?xml version="1.0" standalone="no"?>
<!DOCTYPE svg PUBLIC "-//W3C//DTD SVG 1.1//EN" "http://www.w3.org/Graphics/SVG/1.1/DTD/svg11.dtd" >
<svg xmlns="http://www.w3.org/2000/svg">
<metadata>Generated by IcoMoon</metadata>
<defs>
<font id="icomoon" horiz-adv-x="1024">
<font-face units-per-em="1024" ascent="896" descent="-128" />
<missing-glyph horiz-adv-x="1024" />
<glyph unicode="&#x20;" d="" />
<glyph unicode="&#xe60e;" glyph-name="standardicon_inactive_huaban" d="M534.187 807.538l128.284-259.982 287.004-41.813c20.196-2.844 28.16-27.876 13.653-42.098l-207.644-202.524 48.924-285.867c0.234-1.273 0.368-2.739 0.368-4.235 0-13.573-11.003-24.576-24.576-24.576-4.26 0-8.267 1.084-11.76 2.991l0.128-0.064-256.569 135.111-256.569-134.827c-17.92-9.387-39.253 5.973-35.84 25.884l48.924 285.867-207.644 202.524c-4.558 4.491-7.382 10.731-7.382 17.631 0 12.357 9.057 22.599 20.896 24.449l0.139 0.018 287.004 41.813 128.284 259.982c9.102 17.92 35.271 17.92 44.373-0.284z" />
<glyph unicode="&#xe60f;" glyph-name="standardicon_normal_huaban" d="M534.187 807.538l128.284-259.982 287.004-41.813c20.196-2.844 28.16-27.876 13.653-42.098l-207.644-202.524 48.924-285.867c0.234-1.273 0.368-2.739 0.368-4.235 0-13.573-11.003-24.576-24.576-24.576-4.26 0-8.267 1.084-11.76 2.991l0.128-0.064-256.569 135.111-256.569-134.827c-17.92-9.387-39.253 5.973-35.84 25.884l48.924 285.867-207.644 202.524c-4.558 4.491-7.382 10.731-7.382 17.631 0 12.357 9.057 22.599 20.896 24.449l0.139 0.018 287.004 41.813 128.284 259.982c9.102 17.92 35.271 17.92 44.373-0.284z" />
<glyph unicode="&#xe610;" glyph-name="star_new2" d="M475.854 859.429c14.393 0.237 27.817-6.822 35.837-18.567l2.467-4.085 135.339-245.613 265.997-60.656c15.439-2.659 28.174-13.614 33.154-28.52 4.427-13.25 2.090-27.717-6.014-38.818l-186.739-220.136 27.664-286.192c1.601-12.255-2.165-24.606-10.327-33.863s-19.918-14.511-32.233-14.409c-4.764-0.038-9.483 0.776-13.94 2.392l-4.361 1.882-246.845 114.477-247.696-114.477c-5.676-2.862-11.949-4.326-18.301-4.275-12.315-0.102-24.071 5.152-32.233 14.409-6.996 7.934-10.762 18.142-10.687 28.614l0.361 5.249 27.664 286.192-183.431 216.139c-10.721 11.463-14.301 27.909-9.321 42.815 4.427 13.25 14.981 23.378 28.115 27.332l271.887 61.843 135.339 245.613c7.515 14.171 22.312 22.916 38.304 22.652zM987.429-18.286c20.198 0 36.571-16.374 36.571-36.571 0-18.755-14.118-34.213-32.306-36.325l-4.265-0.246h-73.143c-20.198 0-36.571 16.374-36.571 36.571 0 18.755 14.118 34.213 32.306 36.325l4.265 0.246h73.143zM475.831 754.635l-125.482-227.799-251.642-57.181 172.052-202.72-25.729-265.456 230.878 106.688 229.812-106.614-25.62 265.382 172.125 202.72-250.879 57.208-125.514 227.772zM987.429 91.429c20.198 0 36.571-16.374 36.571-36.571 0-18.755-14.118-34.213-32.306-36.325l-4.265-0.246h-109.714c-20.198 0-36.571 16.374-36.571 36.571 0 18.755 14.118 34.213 32.306 36.325l4.265 0.246h109.714zM987.429 201.143c20.198 0 36.571-16.374 36.571-36.571 0-18.755-14.118-34.213-32.306-36.325l-4.265-0.246h-146.286c-20.198 0-36.571 16.374-36.571 36.571 0 18.755 14.118 34.213 32.306 36.325l4.265 0.246h146.286z" />
<glyph unicode="&#xe611;" glyph-name="customizeicons" d="M896 714.809c-1.138 21.049-17.92 37.547-38.684 38.969l-285.298 16.498c-12.8 0.853-25.316-3.982-34.418-13.084l-442.596-442.596c-14.222-14.222-14.222-37.262 0-51.484l310.613-310.613c14.222-14.222 37.262-14.222 51.484 0l442.88 442.88c9.102 9.102 13.938 21.618 13.084 34.418l-17.067 285.013zM777.956 555.236c-22.187-22.187-58.311-22.187-80.498 0s-22.187 58.311 0 80.498c22.187 22.187 58.311 22.187 80.498 0 22.471-22.471 22.471-58.311 0-80.498z" />
<glyph unicode="&#xe612;" glyph-name="information_icon-01" d="M548.978 475.022h-128v-45.511h42.667v-301.511h-42.667v-39.822h170.667v39.822h-42.667zM506.311 560.356c17.067 0 34.133 5.689 45.511 19.911 11.378 11.378 19.911 28.444 19.911 45.511s-5.689 34.133-19.911 45.511c-11.378 11.378-28.444 19.911-45.511 19.911s-34.133-5.689-45.511-19.911-19.911-28.444-19.911-45.511c0-17.067 5.689-34.133 19.911-45.511 11.378-14.222 25.6-19.911 45.511-19.911zM512 839.111c-250.311 0-455.111-204.8-455.111-455.111s204.8-455.111 455.111-455.111c250.311 0 455.111 204.8 455.111 455.111s-204.8 455.111-455.111 455.111zM512 5.689c-207.644 0-378.311 170.667-378.311 378.311s170.667 378.311 378.311 378.311c207.644 0 378.311-170.667 378.311-378.311s-170.667-378.311-378.311-378.311z" />
<glyph unicode="&#xe613;" glyph-name="arrow_left_huaban" d="M508.587 878.080c-270.933 0-490.667-219.733-490.667-490.667s219.733-490.667 490.667-490.667 490.667 219.733 490.667 490.667-219.733 490.667-490.667 490.667zM602.88 136.107c-4.48-4.48-9.387-6.613-14.72-6.613s-10.24 2.133-14.72 6.613l-221.227 220.16c-8.107 8.96-11.947 19.2-11.947 30.72s4.053 21.76 11.947 30.72l219.947 218.667c4.48 4.48 9.6 6.613 15.36 6.613s10.88-2.133 15.36-6.613c4.48-4.48 6.613-9.387 6.613-14.72s-2.133-10.24-6.613-14.72l-212.053-212.053c-5.333-5.333-5.333-10.667 0-16l212.053-212.053c10.667-10.667 10.667-20.907 0-30.72z" />
<glyph unicode="&#xe614;" glyph-name="arrow_right_huaban" d="M508.587-103.253c270.933 0 490.667 219.733 490.667 490.667s-219.733 490.667-490.667 490.667-490.667-219.733-490.667-490.667 219.733-490.667 490.667-490.667zM414.293 638.72c4.48 4.48 9.387 6.613 14.72 6.613s10.24-2.133 14.72-6.613l221.227-219.947c8.107-8.96 11.947-19.2 11.947-30.72s-4.053-21.76-11.947-30.72l-219.947-218.667c-4.48-4.48-9.6-6.613-15.36-6.613s-10.88 2.133-15.36 6.613c-4.48 4.48-6.613 9.387-6.613 14.72s2.133 10.24 6.613 14.72l212.053 212.053c5.333 5.333 5.333 10.667 0 16l-212.053 212.053c-10.667 10.453-10.667 20.693 0 30.507z" />
<glyph unicode="&#xe615;" glyph-name="arrow_right_slide_huaban" d="M18.347 387.413c0-0.006 0-0.014 0-0.022 0-270.988 219.679-490.667 490.667-490.667s490.667 219.679 490.667 490.667c0 0.008 0 0.016 0 0.023v-0.001c0 0.006 0 0.014 0 0.022 0 270.988-219.679 490.667-490.667 490.667s-490.667-219.679-490.667-490.667c0-0.008 0-0.016 0-0.023v0.001zM509.013-113.92c-276.48 0-501.333 224.853-501.333 501.333s224.853 501.333 501.333 501.333 501.333-224.853 501.333-501.333-224.853-501.333-501.333-501.333zM509.013 867.413c-264.747 0-480-215.253-480-480s215.253-480 480-480 480 215.253 480 480-215.253 480-480 480zM607.787 378.88c5.333 5.333 5.333 10.667 0 16l-212.053 212.053c-4.48 4.48-6.613 9.387-6.613 14.72s2.133 10.24 6.613 14.72c4.48 4.48 9.6 6.613 15.36 6.613s10.88-2.133 15.36-6.613l219.947-218.88c8.107-8.96 11.947-19.2 11.947-30.72s-4.053-21.76-11.947-30.72l-221.44-219.947c-4.48-4.48-9.387-6.613-14.72-6.613s-10.24 2.133-14.72 6.613c-10.667 9.813-10.667 20.053 0 30.72l212.267 212.053z" />
<glyph unicode="&#xe616;" glyph-name="arrow_left_slide_huaban" d="M17.92 387.413c0-0.006 0-0.014 0-0.022 0-270.988 219.679-490.667 490.667-490.667s490.667 219.679 490.667 490.667c0 0.008 0 0.016 0 0.023v-0.001c0 0.006 0 0.014 0 0.022 0 270.988-219.679 490.667-490.667 490.667s-490.667-219.679-490.667-490.667c0-0.008 0-0.016 0-0.023v0.001zM508.587-113.92c-276.48 0-501.333 224.853-501.333 501.333s224.853 501.333 501.333 501.333 501.333-224.853 501.333-501.333-224.853-501.333-501.333-501.333zM508.587 867.413c-264.747 0-480-215.253-480-480s215.253-480 480-480 480 215.253 480 480-215.253 480-480 480zM602.88 166.827c10.667-10.667 10.667-20.907 0-30.72-4.48-4.48-9.387-6.613-14.72-6.613s-10.24 2.133-14.72 6.613l-221.227 220.16c-8.107 8.96-11.947 19.2-11.947 30.72s4.053 21.76 11.947 30.72l219.947 218.667c4.48 4.48 9.6 6.613 15.36 6.613s10.88-2.133 15.36-6.613c4.48-4.48 6.613-9.387 6.613-14.72s-2.133-10.24-6.613-14.72l-212.053-212.053c-5.333-5.333-5.333-10.667 0-16l212.053-212.053z" />
<glyph unicode="&#xe900;" glyph-name="campaign" d="M841.079 746.446l-0.1-568.145-427.283 196.808v167.337l427.383 204.001zM870.15 813.68c-3.297 0-6.294-0.899-8.991-2.198v0l-482.828-230.575c-0.2-0.1-0.4-0.2-0.599-0.2-3.197-1.199-6.094-3.197-8.292-5.794-0.599-0.699-0.899-1.499-1.399-2.198-0.999-1.399-1.998-2.797-2.597-4.496-0.599-1.598-0.799-3.397-0.999-5.095-0.1-0.999-0.5-1.798-0.5-2.797v-199.006c0-0.3 0-0.5 0.1-0.699 0.2-0.999 0.2-1.898 0.2-2.897-0.699-8.292 3.497-16.284 11.489-19.98l482.629-222.483c2.597-1.199 5.295-1.598 7.992-1.598 1.099 0 2.298 0.1 3.397 0.2 0.1 0 0.3-0.1 0.4-0.1 1.099 0 1.998 0.5 2.997 0.599 0.5 0.2 1.099 0.1 1.598 0.3 9.191 2.198 16.184 10.090 16.284 19.98l0.1 655.56c0 0.2 0 0.4 0 0.599 0.3 3.497 0 7.093-1.698 10.59-0.799 1.598-1.998 2.797-3.097 4.096-0.599 0.699-0.999 1.598-1.698 2.198-0.699 0.699-1.598 1.099-2.398 1.598-1.499 1.099-2.997 2.098-4.695 2.797-0.3 0.1-0.599 0.1-0.899 0.2-2.198 0.799-4.196 1.399-6.494 1.399v0zM285.821 531.856v-142.461h-26.774l-129.274 0.4c-17.583 1.499-33.867 9.391-45.955 22.278-12.388 13.187-19.281 30.47-19.281 48.652s6.793 35.465 19.281 48.652c12.088 12.887 28.272 20.78 45.755 22.278h21.179l135.068 0.2zM313.694 581.807h-185.419c-0.3 0-0.599 0-0.999 0-63.038-4.396-112.79-56.745-112.79-120.882s49.751-116.486 112.79-120.882c0.3 0 0.599 0 0.999 0h23.377c5.894 0 10.989-4.196 12.088-9.89l61.34-303.504c3.796-18.981 20.58-32.069 39.262-32.069 2.597 0 5.295 0.3 7.992 0.799 21.779 4.396 35.765 25.575 31.369 47.254l-57.044 282.224c-1.598 7.692 4.296 14.786 12.088 14.786h56.745c1.898 0 3.596 0.599 5.195 1.299 8.492 2.797 14.686 10.789 14.686 20.48v198.506c0 12.088-9.491 21.779-21.179 21.779-0.1 0-0.3-0.1-0.4-0.1 0.2 0.1 0.1 0.2-0.1 0.2v0z" />
<glyph unicode="&#xe901;" glyph-name="campaign_add" d="M413.796 375.109v167.337l427.283 204.001v-282.224h49.951v325.982c0 0.2 0 0.4 0 0.599 0.3 3.497 0 7.093-1.698 10.59-0.799 1.598-1.998 2.797-3.097 4.096-0.599 0.699-0.999 1.598-1.698 2.198-0.699 0.699-1.598 1.099-2.398 1.598-1.499 1.099-2.997 2.098-4.695 2.797-0.3 0.1-0.599 0.1-0.899 0.2-1.998 0.699-4.096 1.299-6.294 1.299-3.297 0-6.294-0.899-8.991-2.198v0l-482.928-230.475c-0.2-0.1-0.4-0.2-0.599-0.2-3.197-1.199-6.094-3.197-8.292-5.794-0.599-0.699-0.899-1.499-1.399-2.198-0.999-1.399-1.998-2.797-2.597-4.496-0.599-1.598-0.799-3.397-0.999-5.095-0.1-0.999-0.5-1.798-0.5-2.797v-199.006c0-0.3 0-0.5 0.1-0.699 0.2-0.999 0.2-1.898 0.2-2.897-0.699-8.292 3.497-16.284 11.489-19.98l272.634-125.677v55.046l-234.571 107.995zM314.593 581.807c-0.1 0-0.3-0.1-0.4-0.1-0.2 0-0.3 0.1-0.4 0.1h-185.419c-0.3 0-0.599 0-0.999 0-63.038-4.396-112.79-56.745-112.79-120.882s49.751-116.486 112.79-120.882c0.3 0 0.599 0 0.999 0h23.377c5.894 0 10.989-4.196 12.088-9.89l61.34-303.504c3.796-18.981 20.58-32.069 39.262-32.069 2.597 0 5.295 0.3 7.992 0.799 21.779 4.396 35.765 25.575 31.369 47.254l-57.044 282.224c-1.499 7.692 4.296 14.786 12.088 14.786h56.745c1.898 0 3.596 0.599 5.195 1.299 8.492 2.797 14.686 10.789 14.686 20.48v198.506c0.2 12.088-9.191 21.879-20.88 21.879zM285.821 389.395h-26.774l-129.274 0.4c-17.583 1.499-33.867 9.391-45.955 22.278-12.388 13.187-19.281 30.47-19.281 48.652s6.793 35.465 19.281 48.652c12.088 12.887 28.272 20.78 45.755 22.278h156.148v-142.261zM838.082 391.992h48.253v-317.89h-48.253v317.89zM703.313 256.824h317.89v-47.554h-317.89v47.554z" />
<glyph unicode="&#xe902;" glyph-name="collab" d="M1022.669 165.786h-138.752v139.059h-49.562v-139.059h-138.547v-48.845h138.547v-138.957h49.562v138.957h138.752zM264.499 94.413c-25.702 13.722-57.344 21.914-94.925 24.474 21.299 2.458 39.731 12.186 55.398 29.082s23.45 37.888 23.45 62.976c0 25.088-9.114 46.694-27.238 64.819s-40.346 27.238-66.662 27.238c-25.088 0-47.002-9.114-65.741-27.238s-28.16-39.731-28.16-64.819c0-25.088 7.782-46.080 23.45-62.976s34.714-26.624 57.344-29.082c-37.581-2.56-69.53-10.65-95.846-24.474s-39.424-30.106-39.424-48.845v-110.899h296.96v110.899c0 18.739-12.902 35.021-38.605 48.845zM568.934 659.046c-24.474 23.142-52.941 34.714-85.504 34.714s-60.416-11.571-83.558-34.714c-23.142-23.142-34.714-51.098-34.714-83.558 0-17.51 3.072-32.256 9.421-44.134 6.246-11.878 13.722-23.45 22.528-34.714 8.704-11.264 18.125-24.474 28.16-39.424 10.035-15.053 18.125-34.509 24.474-58.266h71.373l26.317 61.952 26.317 37.581c7.475 11.264 14.746 22.528 21.606 33.792s10.342 25.702 10.342 43.213c-0.102 32.461-12.39 60.314-36.762 83.558zM620.646 240.947h138.65v138.957h100.045v456.704h-744.141v-477.184c11.264 3.789 23.142 5.632 35.738 5.632 41.37 0 77.005-14.746 107.11-44.134 30.106-29.491 45.056-65.434 45.056-108.032 0-26.317-6.246-50.074-18.739-71.373h336.384v99.43zM562.381 254.157c0-5.018-1.843-7.475-5.632-7.475h-22.528l-13.107-28.16h-71.373l-15.053 28.16h-22.528c-3.789 0-5.632 2.458-5.632 7.475v65.741c0 3.789 1.843 5.632 5.632 5.632h144.691c3.789 0 5.632-1.843 5.632-5.632v-65.741zM564.224 372.531l-9.421-26.317h-140.902l-9.421 28.16-26.317 54.477-33.792 43.213c-11.264 13.722-20.070 29.082-26.317 46.080-6.246 16.896-10.035 37.274-11.264 61.030 0 21.299 5.018 43.827 15.053 67.686 13.722 32.563 35.021 58.266 63.898 77.005 28.774 18.739 61.338 28.16 97.69 28.16 21.299 0 42.598-3.789 63.898-11.264s40.346-18.739 57.344-33.792c16.896-15.053 30.72-33.178 41.37-54.477s15.974-45.773 15.974-73.318c0-25.088-3.482-44.749-10.342-59.187s-15.053-28.16-24.474-41.37c-9.421-13.107-20.070-27.546-31.949-43.213-11.981-15.667-22.323-36.659-31.027-62.874z" />
<glyph unicode="&#xe903;" glyph-name="collab_person" d="M171.315 120.32c37.786-2.56 69.53-10.65 95.334-24.474s38.707-30.106 38.707-48.845v-110.899h-298.189v110.899c0 18.842 13.21 35.021 39.629 48.845 26.419 13.722 58.47 21.914 96.256 24.474-22.63 2.458-41.882 12.186-57.549 29.082-15.77 16.896-23.552 37.888-23.552 62.976s9.421 46.694 28.262 64.819c18.842 18.125 40.858 27.238 66.048 27.238 26.419 0 48.742-9.114 66.97-27.238s27.341-39.834 27.341-64.819c0-25.088-7.885-46.080-23.552-62.976-15.77-16.896-34.304-26.624-55.706-29.082zM305.357 214.323c0 42.598-15.053 78.643-45.261 108.032s-66.048 44.134-107.52 44.134c-12.595 0-24.576-1.843-35.84-5.632v477.286h747.315v-477.286c-11.366 3.789-23.962 5.632-37.786 5.632-42.803 0-78.95-14.746-108.544-44.134-29.594-29.491-44.339-65.434-44.339-108.032 0-26.317 6.246-50.074 18.842-71.373h-405.811c12.595 21.197 18.944 45.056 18.944 71.373zM324.198 648.397c-10.035-23.859-15.053-46.387-15.053-67.686 1.229-23.859 5.018-44.134 11.366-61.030 6.246-16.896 15.053-32.256 26.419-46.080l33.997-43.213 26.419-54.477 9.421-28.16h141.517l9.421 26.317c8.806 26.317 19.149 47.309 31.13 62.976s22.63 30.106 32.051 43.213c9.421 13.107 17.613 26.931 24.576 41.37 6.861 14.438 10.342 34.099 10.342 59.187 0 27.546-5.325 52.019-16.077 73.318s-24.576 39.424-41.472 54.477c-16.998 15.053-36.147 26.317-57.549 33.792s-42.803 11.264-64.205 11.264c-36.454 0-69.222-9.421-98.099-28.16-28.979-18.842-50.381-44.544-64.205-77.107zM452.506 400.282c-6.349 23.757-14.438 43.213-24.576 58.266-10.035 15.053-19.558 28.16-28.262 39.424-8.806 11.264-16.384 22.835-22.63 34.816-6.349 11.878-9.421 26.624-9.421 44.134 0 32.563 11.571 60.416 34.918 83.661 23.245 23.142 51.2 34.816 83.968 34.816 32.666 0 61.338-11.571 85.811-34.816 24.576-23.245 36.762-51.098 36.762-83.661 0-17.51-3.482-31.949-10.342-43.213-6.963-11.264-14.131-22.528-21.709-33.792l-26.419-37.581-26.419-62.054h-71.68zM565.76 321.434c0 3.789-1.843 5.632-5.632 5.632h-145.408c-3.789 0-5.632-1.843-5.632-5.632v-65.741c0-5.018 1.843-7.475 5.632-7.475h22.63l15.053-28.16h71.68l13.21 28.16h22.63c3.789 0 5.632 2.458 5.632 7.475v65.741zM835.584 120.32c37.786-2.56 69.53-10.65 95.334-24.474s38.707-30.106 38.707-48.845v-110.899h-296.346v110.899c0 18.842 12.902 35.021 38.707 48.845 25.805 13.722 57.549 21.914 95.334 24.474-21.402 2.458-39.936 12.186-55.706 29.082s-23.552 37.888-23.552 62.976c0 25.088 9.114 46.694 27.341 64.819s40.55 27.238 66.97 27.238c25.19 0 47.206-9.114 66.048-27.238s28.262-39.834 28.262-64.819c0-25.088-7.885-46.080-23.552-62.976-15.77-16.896-34.918-26.624-57.549-29.082z" />
<glyph unicode="&#xe904;" glyph-name="heart" d="M271.565 797.696v-61.44c35.942 0 80.384-17.92 128.614-51.917 41.062-28.877 69.53-58.778 70.656-60.109l44.134-46.694 44.646 46.182c3.174 3.277 32.358 33.075 73.626 61.44 48.026 33.075 92.16 50.483 127.693 50.483 6.349 0 12.595-0.614 18.33-1.741 51.098-9.933 100.864-50.074 126.669-102.093 10.547-21.197 16.282-42.701 17.306-63.898 0.922-21.709-3.379-42.496-12.8-61.747-25.498-52.019-62.669-111.002-110.592-175.514-39.526-53.248-86.323-110.080-138.854-168.858-57.549-64.41-110.285-117.76-144.282-151.142-34.406 32.973-86.426 84.582-142.336 145.203-52.838 57.242-100.147 112.845-140.8 165.171-49.357 63.693-88.781 122.47-117.043 175.002-25.6 47.411-8.602 98.509 3.891 124.723 13.312 28.058 33.894 54.886 58.061 75.366 23.859 20.173 49.664 33.485 74.752 38.4 5.837 1.126 11.981 1.741 18.33 1.741v61.44zM271.565 797.696c-10.035 0-20.070-0.922-30.106-2.867-130.662-25.498-248.525-198.758-178.995-327.885 130.458-242.074 429.773-518.656 453.325-539.341l1.331-1.331 2.048 2.048c23.45 20.685 327.987 309.35 446.464 550.912 64.614 131.686-43.93 289.587-174.49 315.187-9.933 1.946-20.070 2.867-30.106 2.867-116.429 0-235.11-120.013-245.453-130.662-6.451 6.656-125.645 131.072-244.019 131.072v0z" />
<glyph unicode="&#xe905;" glyph-name="heart_filled" d="M519.168-71.68c23.45 20.685 327.987 309.35 446.464 550.912 64.614 131.686-43.93 289.587-174.49 315.187-125.338 24.371-264.397-116.224-275.661-127.898-6.861 7.27-146.637 153.19-274.022 128.307-130.662-25.498-248.525-198.758-178.995-327.885 130.458-242.074 429.773-518.656 453.325-539.341l1.331-1.331 2.048 2.048z" />
<glyph unicode="&#xe906;" glyph-name="idea" d="M515.072 858.112v0 0c-169.165 0-306.176-137.114-306.176-306.176 0-61.747 18.432-119.091 49.869-167.117l54.579-100.557h0.205c19.251-37.786 29.798-80.384 28.262-124.928 0 0 0.205-6.758 0.205-10.342 0-12.595 10.24-22.835 22.835-22.835h300.442c12.595 0 22.835 10.24 22.835 22.835 0 3.584 0.205 10.342 0.205 10.342-1.536 44.544 8.909 87.142 28.262 124.928h0.205l54.579 100.557c31.437 48.026 49.869 105.37 49.869 167.117 0 169.062-137.114 306.176-306.176 306.176zM740.762 426.086l-49.152-89.702c-31.846-47.923-50.483-104.653-51.2-164.659h-250.675c-0.819 60.006-19.456 116.736-51.2 164.659l-49.152 89.702h0.205c-20.787 37.274-32.768 80.077-32.768 125.85 0 142.746 115.712 258.355 258.355 258.355s258.355-115.712 258.355-258.355c0-45.67-11.981-88.576-32.768-125.85v0zM342.221 61.747c115.61 0 230.195 0 345.702 0 0-33.28 0-66.355 0-100.25-16.077 0-31.846-0.307-47.514 0.102-8.090 0.205-11.981-1.536-15.36-5.632-11.059-13.414-22.528-26.829-34.714-39.936-2.15-2.355-8.499-4.71-12.902-4.813-41.677-0.307-83.354-0.307-125.030 0-4.403 0-10.547 2.56-12.8 4.915-12.186 13.107-23.654 26.522-34.714 39.936-3.379 4.198-7.68 5.632-15.462 5.427-15.36-0.307-30.72-0.102-47.206-0.102 0 33.485 0 66.56 0 100.352z" />
<glyph unicode="&#xe907;" glyph-name="idea_add" d="M638.259 168.755h-251.29c-0.819 60.211-19.456 117.043-51.302 165.069l-49.254 89.907h0.205c-20.89 37.376-32.87 80.282-32.87 126.054 0 143.053 115.917 258.97 258.97 258.97 37.274 0 72.602-7.987 104.653-22.221h90.624c-53.043 43.827-121.037 70.144-195.277 70.144v0 0c-169.472 0-306.893-137.421-306.893-306.893 0-61.85 18.432-119.398 49.971-167.526l54.682-100.762h0.205c19.354-37.888 29.798-80.589 28.262-125.235 0 0 0.205-6.758 0.205-10.445 0-12.595 10.24-22.835 22.835-22.835h301.261c12.595 0 22.835 10.24 22.835 22.835 0 3.686 0.205 10.445 0.205 10.445-1.536 44.646 9.011 87.347 28.262 125.235h-52.736c-14.643-35.123-23.040-73.114-23.552-112.742zM709.325 702.362h49.459v-325.837h-49.459v325.837zM571.187 563.814h325.837v-48.742h-325.837v48.742zM339.354 60.928c115.917 0 230.605 0 346.419 0 0-33.382 0-66.56 0-100.557-16.179 0-31.949-0.307-47.616 0.102-8.090 0.205-11.981-1.536-15.36-5.632-11.059-13.517-22.528-26.829-34.816-40.038-2.15-2.355-8.499-4.71-12.902-4.813-41.779-0.41-83.558-0.41-125.338 0-4.403 0-10.547 2.56-12.8 4.915-12.186 13.21-23.757 26.624-34.714 40.038-3.482 4.198-7.68 5.632-15.565 5.427-15.36-0.41-30.822-0.102-47.309-0.102 0 33.69 0 66.867 0 100.659z" />
<glyph unicode="&#xe908;" glyph-name="Thumbsdown_new" d="M40.96 736.973c0 28.16 23.040 51.2 51.2 51.2h96.87c28.16 0 51.2-23.040 51.2-51.2v-387.994c0-28.16-23.040-51.2-51.2-51.2h-96.87c-28.16 0-51.2 23.040-51.2 51.2v387.994zM724.378 792.576c1.229 0 2.355 0 3.482 0l134.861-127.283c5.427-5.12 9.626-11.674 12.083-18.739l31.846-92.774c0.819-2.253 1.434-4.608 1.843-7.066l14.95-84.582c1.638-9.216 0.512-18.637-3.277-27.136l-53.35-119.706c-7.475-16.794-24.269-27.648-42.701-27.648h-184.832l40.55-79.053c0.205-0.307 17.818-35.328 29.798-79.053 14.029-51.405 14.438-93.184 1.024-117.555-4.813-8.704-11.571-15.565-20.685-20.89-3.994-2.355-8.499-4.506-13.517-6.246l-43.008 100.147c-3.584 8.397-8.294 16.384-14.029 23.552-13.312 16.998-29.184 39.834-45.978 63.898-75.981 109.261-130.765 181.555-197.222 190.259-16.077 2.15-31.334 3.584-45.568 4.506v347.238l4.506 0.512h0.41c5.325 0.717 131.379 17.306 223.437 53.35 55.91 21.914 134.246 24.269 165.376 24.269zM724.378 846.848c-40.858 0-122.47-3.379-185.037-27.955-86.938-33.997-210.637-49.971-210.637-49.971l-52.224-6.349v-440.32c0 0 7.168-8.294 24.064-8.294 15.258 0 37.888-1.024 68.71-5.12 63.59-8.294 150.733-161.587 207.565-233.882 2.765-3.482 5.018-7.373 6.758-11.469l60.518-140.595c232.346 21.709 84.173 310.477 84.173 310.477h95.949c39.834 0 75.981 23.45 92.262 59.904l53.248 119.603c8.192 18.432 10.752 38.81 7.168 58.675l-14.95 84.582c-0.922 5.12-2.253 10.24-3.891 15.258l-31.846 92.774c-5.325 15.462-14.336 29.389-26.214 40.653l-150.016 141.517c0 0-9.728 0.512-25.6 0.512v0z" />
<glyph unicode="&#xe909;" glyph-name="Thumbsdown_new_filled" d="M40.96 736.973c0 28.16 23.040 51.2 51.2 51.2h96.87c28.16 0 51.2-23.040 51.2-51.2v-387.994c0-28.16-23.040-51.2-51.2-51.2h-96.87c-28.16 0-51.2 23.040-51.2 51.2v387.994zM644.096-77.107c232.346 21.709 84.173 310.477 84.173 310.477v0h95.949c39.834 0 75.981 23.45 92.262 59.904l53.248 119.603c8.192 18.432 10.752 38.81 7.168 58.675l-14.95 84.582c-0.922 5.12-2.253 10.24-3.891 15.258l-31.846 92.774c-5.325 15.462-14.336 29.389-26.214 40.653l-150.016 141.517c0 0-9.728 0.512-25.6 0.512-40.858 0-122.47-3.379-185.037-27.955-86.938-33.997-210.637-49.971-210.637-49.971l-52.224-6.349 1.331-439.501c0 0 5.837-9.011 22.733-9.011 15.258 0 37.888-1.024 68.71-5.12 63.59-8.294 150.733-161.587 207.565-233.882 2.765-3.482 5.018-7.373 6.758-11.469l60.518-140.698z" />
<glyph unicode="&#xe90a;" glyph-name="Thumbsup_new" d="M40.96 32.768c0-28.16 23.040-51.2 51.2-51.2h96.87c28.16 0 51.2 23.040 51.2 51.2v387.994c0 28.16-23.040 51.2-51.2 51.2h-96.87c-28.16 0-51.2-23.040-51.2-51.2v-387.994zM676.557 784.998c4.915-1.843 9.421-3.891 13.414-6.246 9.114-5.325 15.974-12.186 20.685-20.89 13.21-24.064 13.005-65.229-0.512-115.814-11.878-44.442-29.798-79.974-30.31-80.896l-40.55-78.95h184.832c18.432 0 35.123-10.854 42.701-27.648l53.35-119.706c3.789-8.499 4.915-17.92 3.277-27.136l-14.95-84.582c-0.41-2.355-1.024-4.71-1.843-7.066l-31.846-92.774c-2.458-7.168-6.656-13.619-12.083-18.739l-134.861-127.386c-1.126 0-2.253 0-3.482 0-31.13 0-109.466 2.355-165.274 24.166-92.058 36.045-218.112 52.634-223.437 53.35h-0.41l-4.506 0.614v347.238c14.234 0.922 29.491 2.458 45.568 4.506 66.458 8.704 121.242 80.896 197.222 190.259 16.794 24.166 32.666 47.002 45.978 63.898 5.632 7.168 10.342 15.155 14.029 23.552l43.008 100.25zM644.096 846.848l-60.518-140.698c-1.741-4.096-3.994-7.987-6.758-11.469-56.832-72.294-143.872-225.587-207.462-233.882-30.822-3.994-53.453-5.12-68.71-5.12-16.896 0-24.064-8.294-24.064-8.294v-440.32l52.224-6.349c0 0 123.699-16.077 210.637-50.074 62.566-24.474 144.179-27.955 185.037-27.955 15.872 0 25.6 0.512 25.6 0.512l150.016 141.619c11.878 11.264 20.89 25.19 26.214 40.653l31.846 92.774c1.741 4.915 2.97 10.035 3.891 15.258l14.95 84.582c3.482 19.866 1.024 40.243-7.168 58.675l-53.35 119.706c-16.179 36.454-52.326 59.904-92.262 59.904h-95.949c0 0 148.173 288.768-84.173 310.477v0z" />
<glyph unicode="&#xe90b;" glyph-name="Thumbsup_new_filled" d="M40.96 32.768c0-28.16 23.040-51.2 51.2-51.2h96.87c28.16 0 51.2 23.040 51.2 51.2v387.994c0 28.16-23.040 51.2-51.2 51.2h-96.87c-28.16 0-51.2-23.040-51.2-51.2v-387.994zM583.578 706.15c-1.741-4.096-3.994-7.987-6.758-11.469-56.832-72.294-143.872-225.587-207.462-233.882-30.822-3.994-53.453-5.12-68.71-5.12-16.896 0-22.733-9.011-22.733-9.011v0l-1.434-439.501 52.224-6.349c0 0 123.699-16.077 210.637-50.074 62.566-24.474 144.179-27.955 185.037-27.955 15.872 0 25.6 0.512 25.6 0.512v0l150.016 141.619c11.878 11.264 20.89 25.19 26.214 40.653l31.846 92.774c1.741 4.915 2.97 10.035 3.891 15.258l14.95 84.582c3.482 19.866 1.024 40.243-7.168 58.675l-53.248 119.603c-16.179 36.454-52.326 59.904-92.262 59.904h-95.949c0 0 148.173 288.768-84.173 310.477l-60.518-140.698z" />
<glyph unicode="&#xe90c;" glyph-name="line3" d="M43.008 384h938.701v-42.394h-938.701v42.394z" />
<glyph unicode="&#xe90d;" glyph-name="line4" d="M43.008 427.008h938.701v-128.41h-938.701v128.41z" />
<glyph unicode="&#xe90e;" glyph-name="line5" d="M43.008 470.016h938.701v-214.426h-938.701v214.426z" />
<glyph unicode="&#xe90f;" glyph-name="lineBoth" d="M238.694 467.866h547.328v-124.416h-547.328v124.416zM256.102 168.55l-256.102 237.158 256.102 237.056zM767.898 642.765l256.102-237.056-256.102-237.158z" />
<glyph unicode="&#xe910;" glyph-name="lineDashed" d="M43.622 467.866h295.424v-210.432h-295.424v210.432zM684.134 467.866h295.424v-210.432h-295.424v210.432z" />
<glyph unicode="&#xe911;" glyph-name="lineDotted" d="M598.118 467.866h169.472v-210.432h-169.472v210.432zM257.126 467.866h169.472v-210.432h-169.472v210.432zM939.622 467.866h43.008v-210.432h-43.008v210.432zM41.574 467.866h43.008v-210.432h-43.008v210.432z" />
<glyph unicode="&#xe912;" glyph-name="lineEnd" d="M44.134 467.866h723.456v-125.952h-723.456v125.952zM767.59 645.837l256.41-240.947-256.41-240.947z" />
<glyph unicode="&#xe913;" glyph-name="lineStart" d="M256.41 467.866h723.456v-125.952h-723.456v125.952zM256.41 645.837l-256.41-240.947 256.41-240.947z" />
<glyph unicode="&#xe914;" glyph-name="comment_panel" d="M511.381 891.937c280.521 0 507.937-227.416 507.937-507.937s-227.416-507.937-507.937-507.937c-91.883-0.136-182.067 24.764-260.863 72.026-7.938 4.702-15.896 9.371-23.873 14.006l-124.292-33.905c-28.444-7.746-54.527 18.349-46.768 46.781l33.854 124.152c-13.105 22.248-21.689 37.168-25.956 45.13-39.529 73.721-60.158 156.096-60.039 239.746 0 280.521 227.416 507.937 507.937 507.937zM389.692 237.448c-10.442 8.9-24.864 11.498-37.755 6.8s-22.261-15.965-24.528-29.497c-2.268-13.532 2.917-27.238 13.572-35.882 47.836-39.842 108.145-61.622 170.4-61.537 62.239-0.083 122.532 21.686 170.362 61.511 10.466 8.701 15.495 22.325 13.193 35.74s-11.587 24.582-24.356 29.295c-12.769 4.713-27.082 2.256-37.548-6.445-33.943-28.229-76.546-43.911-121.651-43.911-44.459-0.086-87.534 15.462-121.689 43.924z" />
<glyph unicode="&#xe915;" glyph-name="follow" d="M787.692 226.462h-157.538v-78.769h157.538v-157.538h78.769v157.538h157.538v78.769h-157.538v157.538h-78.769v-157.538zM315.077-9.846c0 108.758-88.165 196.923-196.923 196.923v-196.923h196.923zM550.924-9.846c0.306 6.526 0.461 13.091 0.461 19.692 0 228.391-185.147 413.538-413.538 413.538-6.601 0-13.167-0.155-19.692-0.461v-78.878c6.516 0.378 13.082 0.57 19.692 0.57 184.888 0 334.769-149.881 334.769-334.769 0-6.611-0.192-13.176-0.57-19.692h78.878zM703.389 423.385c-108.957 188.353-312.605 315.077-545.85 315.077-13.227 0-26.36-0.408-39.385-1.211v-78.943c13.009 0.918 26.142 1.385 39.385 1.385 187.372 0 352.915-93.461 452.554-236.308h93.297z" />
<glyph unicode="&#xe916;" glyph-name="following" d="M745.314 100.076l222.996 222.917 55.69-55.69-278.489-278.449-44.82 44.82-134.853 130.796 55.69 55.69 123.786-120.084zM315.077-9.846c0 108.78-88.182 196.923-196.923 196.923v-196.923h196.923zM550.912-9.846c0.315 6.538 0.473 13.076 0.473 19.692 0 228.391-185.147 413.538-413.538 413.538-6.577 0-13.154-0.158-19.692-0.473v-78.887c6.538 0.394 13.076 0.591 19.692 0.591 184.871 0 334.769-149.898 334.769-334.769 0-6.617-0.197-13.154-0.591-19.692h78.887zM741.888 344.615c-93.499 230.951-319.882 393.846-584.35 393.846-13.233 0-26.348-0.394-39.385-1.221v-78.927c12.997 0.906 26.151 1.378 39.385 1.378 219.963 0 409.836-128.788 498.294-315.077h86.055z" />
<glyph unicode="&#xe917;" glyph-name="unfollow" d="M771.379 187.077l-111.397-111.397 55.698-55.698 111.397 111.397 111.397-111.397 55.698 55.698-111.397 111.397 111.397 111.397-55.698 55.698-111.397-111.397-111.397 111.397-55.698-55.698 111.397-111.397zM315.077-9.846c0 108.758-88.165 196.923-196.923 196.923v-196.923h196.923zM550.924-9.846c0.306 6.526 0.461 13.091 0.461 19.692 0 228.391-185.147 413.538-413.538 413.538-6.601 0-13.167-0.155-19.692-0.461v-78.878c6.516 0.378 13.082 0.57 19.692 0.57 184.888 0 334.769-149.881 334.769-334.769 0-6.611-0.192-13.176-0.57-19.692h78.878zM703.389 423.385c-108.957 188.353-312.605 315.077-545.85 315.077-13.227 0-26.36-0.408-39.385-1.211v-78.943c13.009 0.918 26.142 1.385 39.385 1.385 187.372 0 352.915-93.461 452.554-236.308h93.297z" />
<glyph unicode="&#xe918;" glyph-name="register" d="M787.692 265.846h-157.538v-78.769h157.538v-157.538h78.769v157.538h157.538v78.769h-157.538v157.538h-78.769v-157.538zM291.682 108.308h-167.385c14.612 99.446 54.311 179.476 113.585 223.271l56.359 41.63-34.777 60.81c-15.163 26.506-23.237 56.478-23.237 87.788 0 97.871 79.36 177.231 177.231 177.231s177.231-79.36 177.231-177.231c0-31.311-8.074-61.282-23.237-87.788l-34.777-60.81 34.777-29.105c13.745 0.985 117.524 0 117.524 0-14.139 15.321-32.886 38.754-49.152 50.806 21.386 37.376 33.634 80.699 33.634 126.897 0 141.391-114.609 256-256 256s-256-114.609-256-256c0-46.198 12.249-89.521 33.634-126.937-77.351-57.147-129.142-151.71-144.62-286.72v-0.945c-2.56-23.631-5.081-51.358-5.199-77.509 22.882 0 8.153 0 37.258-0.039h39.621c175.143-0.158 517.199-0.039 552.212 0l-0.985 78.297c-57.305-0.394-70.538 0-286.326 0.197-26.151 0.079-44.741 0.079-88.891 0.158z" />
<glyph unicode="&#xe919;" glyph-name="pending" d="M118.217 36.453c-0.031-2.24-0.052-4.491-0.063-6.754 175.147-0.135 635.353-0.036 670.343 0l-1.005 78.312c-57.291-0.425-188.683-0.020-404.448 0.188-26.164 0.025-44.723 0.045-88.881 0.092-161.922 0.175-197.822-0.094-247.716-0.092 15.491 135.012 67.289 229.568 144.636 286.726-21.397 37.409-33.627 80.736-33.627 126.919 0 141.385 114.615 256 256 256s256-114.615 256-256c0-46.173-12.224-89.49-33.612-126.893 16.27-12.027 35.029-35.469 49.136-50.823 0 0-103.781 1.029-117.515 0l-34.771 29.117 34.771 60.807c15.152 26.497 23.222 56.465 23.222 87.792 0 97.882-79.349 177.231-177.231 177.231s-177.231-79.349-177.231-177.231c0-31.335 8.074-61.309 23.232-87.81l34.786-60.817-56.347-41.64c-62.875-46.464-103.719-124.019-115.917-233.153 0.292 3.824 0.559 6.891 0.786 8.823-3.907 0.419-20.704 0.454-37.758 0.369-20.162-0.1-40.682-0.369-40.682-0.369-2.562-23.656-4.831-51.361-4.942-77.512 22.869 0 49.36-0.014 78.472-0.036 0 0 0.134 2.556 0.361 6.753zM472.615 265.846h118.154v-78.769h-118.154v78.769zM669.538 265.846h118.154v-78.769h-118.154v78.769zM866.462 265.846h118.154v-78.769h-118.154v78.769z" />
<glyph unicode="&#xe91a;" glyph-name="raise_hand" horiz-adv-x="768" d="M686.848 512c-35.264 20.352-75.904 22.080-110.848 8.32v215.872c0 52.8-43.008 95.808-96 95.808-12.672 0-24.64-2.56-35.712-6.976-10.944 40.704-47.936 70.976-92.288 70.976-44.672 0-81.408-30.208-92.352-70.976-11.072 4.416-23.040 6.976-35.648 6.976-53.376 0-96-42.88-96-95.808v-37.952c-10.048 3.52-20.736 5.76-32 5.76-53.376 0-96-42.88-96-95.808v-448.384c0-41.664 26.688-77.184 64-90.304v-133.312c0-36.16 28.544-64.192 63.808-64.192h384.384c34.816 0 63.808 28.736 63.808 64.192l-0.384 127.168 158.144 273.728c35.584 61.696 14.272 139.584-46.912 174.912zM678.272 369.152l-137.152-237.504-27.328-45.12-1.792-150.336c0 0.064-384.192-0.192-384.192-0.192-0.128 0 0.192 191.808 0.192 191.808h-32v0.192c-17.664 0-32 14.336-32 31.808v448.384c0 17.728 14.080 31.808 32 31.808 17.664 0 32-14.336 32-31.808v-160.192h64v288.192c0 17.728 14.080 31.808 32 31.808 17.664 0 32-14.336 32-31.808v-288.192h64v352.192c0 17.728 14.080 31.808 32 31.808 17.664 0 32-14.336 32-31.808v-352.192h64v288.192c0 17.728 14.144 31.808 32 31.808 17.6 0 32-14.336 32-31.808v-352.192h64v60.8c19.84 21.504 52.288 27.136 78.848 11.776 30.784-17.792 41.28-56.576 23.424-87.424z" />
<glyph unicode="&#xe91b;" glyph-name="shake_hands" horiz-adv-x="1396" d="M790.001-3.263c1.856-2.705 3.965-5.272 6.334-7.666 23.855-24.292 62.836-24.235 86.749 0 23.855 24.235 23.913 63.716 0 88.007-2.255 2.285-4.62 4.377-7.075 6.273-0.234 0.448-0.475 0.899-0.722 1.35-14.816 27.094-41.304 51.895-35.020 58.266 7.156 7.282-4.834 11.992 77.028-71.009 0.080 0 0.16 0 0.24 0.001 23.985-22.337 61.503-21.64 84.764 1.934 22.091 22.443 23.774 57.962 4.91 82.384-0.438 1.983-1.396 3.584-2.932 4.713-23.060 16.953-59.407 60.458-53.123 66.83 6.226 6.313 31.747-20.959 67.488-49.095 0.438-0.475 0.887-0.945 1.344-1.407 23.855-24.292 62.836-24.235 86.749 0 23.855 24.235 23.913 63.716 0 88.007-1.844 1.869-3.762 3.609-5.742 5.218-200.973 194.731-155.921 155.13-290.527 281.993-51.462 52.292-89.856 36.383-153.92 0-225.614-128.128-373.784 54.858-206.8 194.301 55.622 39.026 172.16 125.068 172.16 125.068s0 24.097-73.462 24.097c-68.267 0-283.989-185.472-283.989-185.472s-63.795 0.007-127.261 0h-137.193l0.752-373.517c0 0 44.028 0 85.952 0 135.511 108.994 218.813 102.434 272.747 46.171 16.175-17.010 27.52-37.604 33.338-60.018 21.76-6.827 41.309-18.83 57.193-35.385 16.233-16.896 27.52-37.49 33.396-59.961 21.76-6.827 41.251-18.83 57.193-35.442 17.862-18.603 29.731-41.244 35.375-65.764 22.633-6.713 43.229-19.058 59.753-36.352 29.047-30.295 21.486-81.286 14.549-123.4-2.826-5.685-6.226-11.861-11.354-18.978 0 0 20.015-22.869 32.407-35.442 23.913-24.292 62.836-24.235 86.749 0 23.855 24.235 23.913 63.716 0 88.007-0.79 0.801-1.596 1.575-2.418 2.323 0.012 0.098 0.023 0.196 0.032 0.294-18.739 21.065-44.381 42.792-36.41 50.871s22.733-13.266 69.573-56.389c0.324-0.298 0.716-0.569 1.172-0.81zM1396.364 340.644c0 0-128.693 0-183.437 0s-84.705 12.191-96.506 22.634c-69.768 61.74-275.455 262.051-323.091 296.386 0 0-40.227 15.216-74.284 0s-127.372-53.752-162.165-70.761c-17.023-8.281-72.809-12.589-93.409 15.063-21.432 28.768-1.79 77.904 24.080 93.858 81.164 50.176 175.907 133.273 250.011 173.591 50.807 27.642 118.253 32.791 161.801 0 49.795-37.494 137.409-93.96 168.767-116.915s52.596-44.568 86.443-44.568c33.847 0 243.108 0 243.108 0l-1.318-369.287zM494.622 70.175c11.229 29.241 7.447 62.009-14.080 84.423-19.375 20.196-47.535 25.486-74.473 19.228 7.505 27.022 3.375 55.808-16.116 76.174-19.433 20.139-47.535 25.429-74.473 19.172 7.447 27.022 3.316 55.808-16.116 76.174-30.487 31.744-83.2 30.379-117.818-3.129-34.444-33.564-56.553-94.265-25.775-129.877 30.72-35.612 65.92-13.995 92.858-7.737-7.447-27.022-29.905-52.224-2.327-87.609 27.52-35.499 65.92-13.995 92.858-7.68-7.505-27.022-28.975-54.727-2.385-87.609 26.764-32.882 70.633-15.36 99.549-6.258-11.171-29.184-35.084-60.53-4.364-95.915 30.662-35.385 101.585-18.887 136.262 14.62 34.618 33.508 37.876 86.585 7.505 118.329-20.945 21.788-52.247 26.852-81.105 17.692z" />
<glyph unicode="&#xe91c;" glyph-name="lightbulb_check" d="M591.644 93.867h-199.111c-17.067 0-28.444-11.378-28.444-28.444v-68.267c0-17.067 11.378-28.444 28.444-28.444h193.422c17.067 0 28.444 11.378 28.444 28.444v68.267c5.689 17.067-5.689 28.444-22.756 28.444zM494.933-128c51.2 0 91.022 22.756 119.467 62.578-79.644 0-147.911 0-238.933 0 28.444-34.133 68.267-62.578 119.467-62.578zM574.578 179.2h-164.978l-56.889 176.356-5.689 17.067-17.067 11.378c-68.267 45.511-102.4 119.467-102.4 204.8 0 136.533 119.467 250.311 261.689 250.311s261.689-113.778 261.689-250.311c0-22.756-5.689-45.511-11.378-68.267l68.267 73.956c0 164.978-147.911 301.511-318.578 301.511s-318.578-136.533-318.578-307.2c0-102.4 51.2-193.422 125.156-250.311l73.956-216.178h244.622l28.444 79.644-45.511 39.822-22.756-62.578zM938.667 628.622l-256-290.133-142.222 113.778-34.133-39.822 182.044-153.6 295.822 329.956z" />
<glyph unicode="&#xe91d;" glyph-name="newest_line" d="M637.878 130.829c10.608 34.475 20.552 65.635 29.834 93.481 7.956 23.867 15.249 45.746 21.878 65.635s10.608 30.497 11.934 31.823c6.63 14.586 17.238 30.166 31.823 46.74s28.84 35.138 42.762 55.691c13.923 20.552 25.856 43.094 35.801 67.624s14.917 52.707 14.917 84.53c0 46.409-8.287 89.171-24.862 128.287s-39.448 72.597-68.619 100.442c-29.171 27.845-62.652 49.724-100.442 65.635s-78.564 23.867-122.32 23.867c-43.757 0-84.862-7.624-123.315-22.873s-72.265-36.796-101.436-64.641c-29.171-27.845-52.044-61.326-68.619-100.442s-24.862-81.878-24.862-128.287c0-33.149 5.304-62.32 15.912-87.514s22.873-47.735 36.796-67.624c13.923-19.89 28.177-38.122 42.762-54.696s25.193-32.155 31.823-46.74c0-1.326 3.315-11.602 9.945-30.829s13.923-40.773 21.878-64.641v0l31.823-95.47h254.586zM590.144 194.475h-161.105c-11.934 37.127-21.547 65.635-28.84 85.525s-12.265 34.807-14.917 44.751c-2.652 9.945-4.641 15.912-5.967 17.901s-1.989 3.646-1.989 4.972c-6.63 13.26-13.923 25.856-21.878 37.79s-17.238 23.867-27.845 35.801c-18.564 22.541-35.138 45.746-49.724 69.613s-21.878 53.039-21.878 87.514c0 74.254 24.53 135.249 73.591 182.983 22.541 22.541 49.392 39.779 80.552 51.713s64.641 17.901 100.442 17.901c35.801 0 68.95-6.298 99.448-18.895s57.348-30.497 80.552-53.702c23.204-23.204 41.105-50.387 53.702-81.547s18.895-64.641 18.895-100.442c0-34.475-7.624-63.978-22.873-88.508s-32.155-48.066-50.718-70.608c-9.282-11.934-17.569-23.204-24.862-33.812s-14.254-21.878-20.884-33.812c0-1.326-0.663-3.315-1.989-5.967s-3.646-8.95-6.961-18.895c-3.315-9.945-8.619-24.862-15.912-44.751s-16.906-48.398-28.84-85.525v0zM623.956-28.287c7.956 0 14.917 2.983 20.884 8.95s8.95 13.591 8.95 22.873v0 63.646c0 9.282-2.983 16.906-8.95 22.873s-12.928 8.95-20.884 8.95v0h-228.729c-18.564 0-27.845-10.608-27.845-31.823v0-63.646c0-21.215 9.282-31.823 27.845-31.823v0h228.729zM538.431 3.536c-18.564 0-27.845 10.608-27.845 31.823s9.282 31.823 27.845 31.823c18.564 0 27.845-10.608 27.845-31.823s-9.282-31.823-27.845-31.823zM510.586-123.757c42.431 0 78.232 14.586 107.403 43.757v0l19.89 19.89h-254.586l17.901-19.89c29.171-29.171 65.635-43.757 109.392-43.757z" />
<glyph unicode="&#xe91e;" glyph-name="newst_panel" d="M637.878 130.829c10.608 34.475 20.552 65.635 29.834 93.481 7.956 23.867 15.249 45.746 21.878 65.635s10.608 30.497 11.934 31.823c6.63 14.586 17.238 30.166 31.823 46.74s28.84 35.138 42.762 55.691c13.923 20.552 25.856 43.094 35.801 67.624s14.917 52.707 14.917 84.53c0 46.409-8.287 89.171-24.862 128.287s-39.448 72.597-68.619 100.442c-29.171 27.845-62.652 49.724-100.442 65.635s-78.564 23.867-122.32 23.867c-43.757 0-84.862-7.624-123.315-22.873s-72.265-36.796-101.436-64.641c-29.171-27.845-52.044-61.326-68.619-100.442s-24.862-81.878-24.862-128.287c0-33.149 5.304-62.32 15.912-87.514s22.873-47.735 36.796-67.624c13.923-19.89 28.177-38.122 42.762-54.696s25.193-32.155 31.823-46.74c0-1.326 3.315-11.602 9.945-30.829s13.923-40.773 21.878-64.641v0l31.823-95.47h254.586zM623.956-28.287c7.956 0 14.917 2.983 20.884 8.95s8.95 13.591 8.95 22.873v0 63.646c0 9.282-2.983 16.906-8.95 22.873s-12.928 8.95-20.884 8.95v0h-228.729c-18.564 0-27.845-10.608-27.845-31.823v0-63.646c0-21.215 9.282-31.823 27.845-31.823v0h228.729zM538.431 3.536c-18.564 0-27.845 10.608-27.845 31.823s9.282 31.823 27.845 31.823c18.564 0 27.845-10.608 27.845-31.823s-9.282-31.823-27.845-31.823zM510.586-123.757c42.431 0 78.232 14.586 107.403 43.757v0l19.89 19.89h-254.586l17.901-19.89c29.171-29.171 65.635-43.757 109.392-43.757z" />
<glyph unicode="&#xe91f;" glyph-name="newstatus_line" d="M996.907 628.267l-450.56 249.173c-21.547 11.947-47.147 11.947-68.693 0l-450.56-249.173c-14.72-8.107-23.893-23.68-23.893-40.747 0-16.853 9.173-32.427 23.893-40.533l450.56-249.173c10.667-5.973 22.613-8.96 34.347-8.96s23.68 2.987 34.347 8.96l450.56 249.173c0 0 0 0 0 0 14.72 8.107 23.893 23.68 23.893 40.533 0.213 16.853-9.173 32.427-23.893 40.747zM515.413 353.707c-2.133-1.067-4.693-1.067-6.827 0l-422.827 233.813 422.827 233.813c2.133 1.28 4.693 1.28 6.827 0l422.827-233.813-422.827-233.813zM1000.32 177.493l-52.907 29.227-435.413-240.64-435.413 240.853-52.907-29.227c-10.24-5.76-10.24-20.48 0-26.027l468.693-259.2c12.16-6.827 27.093-6.827 39.253 0l468.693 258.987c10.24 5.76 10.24 20.48 0 26.027zM1000.533 394.667l-55.467 30.72-433.067-239.573-433.067 239.573-55.467-30.72c-10.24-5.76-10.24-20.267 0-26.027l468.907-259.2c12.16-6.827 27.093-6.827 39.253 0l468.907 259.2c10.24 5.76 10.24 20.48 0 26.027z" />
<glyph unicode="&#xe920;" glyph-name="newstatus_panel" d="M1000.32 574.507l-468.693-259.2c-12.16-6.827-27.093-6.827-39.253 0l-468.693 259.2c-10.24 5.76-10.24 20.48 0 26.24l468.693 258.987c12.16 6.827 27.093 6.827 39.253 0l468.48-259.2c10.453-5.547 10.453-20.48 0.213-26.027zM512-33.92l-435.413 240.853-52.907-29.227c-10.24-5.76-10.24-20.48 0-26.027l468.693-259.2c12.16-6.827 27.093-6.827 39.253 0l468.693 258.987c10.24 5.76 10.24 20.48 0 26.027l-52.907 29.227-435.413-240.64zM512 185.813l-433.067 239.573-55.467-30.72c-10.24-5.76-10.24-20.267 0-26.027l468.907-259.2c12.16-6.827 27.093-6.827 39.253 0l468.907 259.2c10.24 5.76 10.24 20.267 0 26.027l-55.467 30.72-433.067-239.573z" />
<glyph unicode="&#xe921;" glyph-name="uniE921" d="M157.568 144.704c-11.008 18.688-18.219 31.221-21.803 37.909-31.756 58.090-50.432 127.254-50.432 200.78 0 0.213 0 0.427 0 0.64v-0.033c0 235.637 191.029 426.667 426.667 426.667s426.667-191.029 426.667-426.667-191.029-426.667-426.667-426.667c-0.187 0-0.41 0-0.632 0-80.69 0-156.125 22.498-220.374 61.564l1.881-1.062c6.079-3.1-0.471 0.797-7.039 4.669l-13.015 7.096-104.405-28.48c-23.893-6.507-45.803 15.413-39.285 39.296l28.437 104.288zM222.869 140.917l-17.259-63.307 63.307 17.259c2.528 0.718 5.431 1.13 8.43 1.13 5.929 0 11.481-1.612 16.242-4.422l-0.149 0.081c31.748-17.744 42.316-24.020 52.855-30.338l-20.503 11.394c52.971-32.275 117.039-51.382 185.569-51.382 0.225 0 0.449 0 0.674 0.001h-0.035c200.299 0 362.667 162.368 362.667 362.667s-162.368 362.667-362.667 362.667-362.667-162.368-362.667-362.667c0-60.587 14.848-118.955 42.827-171.136 3.712-6.912 12.928-22.827 27.371-47.232 2.805-4.662 4.464-10.288 4.464-16.303 0-2.993-0.411-5.89-1.179-8.637l0.054 0.225zM368.864 211.691c-7.249 5.914-11.841 14.846-11.841 24.852 0 17.673 14.327 32 32 32 7.942 0 15.208-2.893 20.802-7.683l-0.043 0.036c27.397-22.955 63.026-36.896 101.91-36.896 0.109 0 0.217 0 0.326 0h-0.017c37.888 0 73.675 13.173 102.187 36.885 5.503 4.6 12.655 7.394 20.459 7.394 17.674 0 32.002-14.328 32.002-32.002 0-9.87-4.468-18.696-11.492-24.567l-0.051-0.041c-38.399-32.147-88.322-51.67-142.805-51.67-0.105 0-0.21 0-0.315 0h0.016c-0.091 0-0.198 0-0.305 0-54.495 0-104.428 19.531-143.181 51.976l0.35-0.285z" />
<glyph unicode="&#xe922;" glyph-name="icon_activeparticipate-01" d="M539.733 458.667c21.333 21.333 36.267 44.8 49.067 70.4s17.067 55.467 17.067 87.467c0 29.867-6.4 59.733-17.067 87.467s-27.733 51.2-49.067 72.533c-21.333 21.333-44.8 36.267-72.533 49.067-27.733 10.667-55.467 17.067-87.467 17.067s-61.867-6.4-87.467-17.067c-27.733-10.667-51.2-27.733-70.4-49.067-21.333-21.333-36.267-44.8-49.067-72.533-10.667-27.733-17.067-57.6-17.067-87.467 0-32 6.4-61.867 17.067-87.467 10.667-27.733 27.733-51.2 49.067-70.4 21.333-21.333 44.8-36.267 70.4-49.067 27.733-10.667 55.467-17.067 87.467-17.067 29.867 0 59.733 6.4 87.467 17.067 27.733 12.8 51.2 29.867 72.533 49.067zM260.267 499.2c-32 32-49.067 72.533-49.067 119.467s17.067 87.467 49.067 119.467c32 32 72.533 49.067 119.467 49.067s87.467-17.067 119.467-49.067c34.133-34.133 51.2-72.533 51.2-119.467s-17.067-87.467-49.067-119.467c-32-32-72.533-49.067-119.467-49.067s-87.467 14.933-121.6 49.067zM149.333 288c32 32 72.533 49.067 119.467 49.067h224c19.2 0 36.267-2.133 53.333-8.533 12.8 14.933 27.733 29.867 42.667 42.667-2.133 2.133-6.4 2.133-8.533 4.267-27.733 10.667-57.6 17.067-87.467 17.067h-226.133c-32 0-61.867-6.4-87.467-17.067-27.733-10.667-51.2-27.733-70.4-49.067-21.333-21.333-36.267-44.8-49.067-72.533-10.667-25.6-17.067-55.467-17.067-85.333v-226.133h413.867v57.6h-356.267v168.533c0 46.933 14.933 87.467 49.067 119.467zM981.333 145.067h-59.733l-42.667 102.4c-4.267 8.533-12.8 14.933-23.467 14.933s-19.2-6.4-21.333-17.067l-57.6-185.6-74.667 249.6c-2.133 10.667-12.8 17.067-23.467 17.067s-21.333-6.4-23.467-17.067l-55.467-166.4h-57.6c-12.8 0-23.467-10.667-23.467-23.467 0-6.4 2.133-12.8 6.4-17.067s10.667-6.4 17.067-6.4h76.8c10.667 0 19.2 6.4 23.467 17.067l36.267 108.8 74.667-253.867c2.133-10.667 12.8-17.067 23.467-17.067s19.2 6.4 23.467 17.067l59.733 198.4 23.467-55.467c4.267-8.533 12.8-14.933 23.467-14.933h74.667c12.8 0 23.467 10.667 23.467 23.467 2.133 14.933-8.533 25.6-23.467 25.6z" />
<glyph unicode="&#xe923;" glyph-name="icon_newcomments-01-01" d="M784.64 474.88h-337.92c-6.4 0-12.8-5.12-12.8-12.8v-249.6c0-6.4 5.12-12.8 12.8-12.8h204.8l44.8-53.76v53.76h87.040c6.4 0 12.8 5.12 12.8 12.8v249.6c0 6.4-5.12 12.8-11.52 12.8zM520.96 883.2c-275.2 0-499.2-224-499.2-499.2s224-499.2 499.2-499.2c275.2 0 499.2 224 499.2 499.2s-224 499.2-499.2 499.2zM317.44 317.44h-60.16c-48.64 0-87.040 39.68-87.040 87.040v249.6c0 48.64 39.68 87.040 87.040 87.040h336.64c48.64 0 87.040-39.68 87.040-87.040v-60.16h-75.52v60.16c0 6.4-5.12 12.8-12.8 12.8h-335.36c-6.4 0-12.8-5.12-12.8-12.8v-249.6c0-6.4 5.12-12.8 12.8-12.8h60.16v-74.24zM871.68 212.48c0-48.64-39.68-87.040-87.040-87.040h-11.52v-49.92c0-20.48-12.8-38.4-32-46.080-5.12-2.56-11.52-2.56-16.64-2.56-14.080 0-26.88 6.4-37.12 17.92l-69.12 80.64h-171.52c-48.64 0-87.040 39.68-87.040 87.040v249.6c0 48.64 39.68 87.040 87.040 87.040h336.64c48.64 0 87.040-39.68 87.040-87.040v-249.6z" />
<glyph unicode="&#xe924;" glyph-name="icon_newstatus-01" d="M289.28 234.24h445.44l-222.72 386.56zM512 883.2c-275.2 0-499.2-224-499.2-499.2s224-499.2 499.2-499.2c275.2 0 499.2 224 499.2 499.2s-224 499.2-499.2 499.2zM160 160l352 610.56 352-611.84h-704z" />
<glyph unicode="&#xe925;" glyph-name="eye-01" d="M633.6 120.32c-170.24 0-323.84 107.52-381.44 267.52-3.84 10.24-2.56 20.48 0 28.16 60.16 160 212.48 267.52 381.44 267.52 170.24 0 323.84-107.52 381.44-267.52 3.84-10.24 3.84-20.48 0-28.16-57.6-160-211.2-267.52-381.44-267.52zM302.080 401.92c51.2-138.24 184.32-230.4 331.52-230.4 148.48 0 280.32 92.16 331.52 230.4-51.2 138.24-184.32 230.4-331.52 230.4-145.92 0-279.040-92.16-331.52-230.4zM628.48 249.6c-84.48 0-152.32 67.84-152.32 152.32s67.84 152.32 152.32 152.32 152.32-67.84 152.32-152.32c0-84.48-67.84-152.32-152.32-152.32zM628.48 503.040c-56.32 0-101.12-44.8-101.12-101.12s44.8-101.12 101.12-101.12c56.32 0 101.12 44.8 101.12 101.12s-44.8 101.12-101.12 101.12zM19.2 619.52h252.16v-51.2h-252.16v51.2zM19.2 234.24h252.16v-51.2h-252.16v51.2zM19.2 491.52h176.64v-51.2h-176.64v51.2zM19.2 362.24h176.64v-51.2h-176.64v51.2z" />
<glyph unicode="&#xe926;" glyph-name="updated" d="M512 883.2c-275.2 0-499.2-224-499.2-499.2s224-499.2 499.2-499.2 499.2 224 499.2 499.2-224 499.2-499.2 499.2zM721.92 84.48c-62.72-43.52-134.4-66.56-208.64-66.56-11.52 0-24.32 1.28-37.12 2.56l-7.68 1.28c-6.4 1.28-14.080 1.28-20.48 2.56l-5.12 1.28c-5.12 1.28-8.96 2.56-14.080 3.84-7.68 1.28-14.080 3.84-21.76 5.12-3.84 1.28-7.68 2.56-11.52 3.84-7.68 2.56-15.36 5.12-24.32 8.96l-6.4 2.56c-8.96 3.84-17.92 7.68-26.88 12.8l-1.28 1.28c-29.44 16.64-57.6 37.12-81.92 61.44l-2.56 2.56c-7.68 7.68-14.080 15.36-20.48 23.040l-5.12 6.4c-5.12 6.4-8.96 11.52-12.8 17.92l-1.28 2.56c-42.24 57.6-65.28 129.28-65.28 206.080h-74.24l116.48 175.36 117.76-175.36h-72.96c0-65.28 23.040-125.44 61.44-172.8l3.84-3.84c5.12-6.4 10.24-12.8 16.64-17.92l1.28-1.28c19.2-19.2 39.68-34.56 62.72-47.36h1.28c6.4-3.84 14.080-7.68 21.76-10.24l3.84-1.28c6.4-2.56 12.8-5.12 19.2-6.4 2.56-1.28 5.12-1.28 7.68-2.56 5.12-1.28 11.52-2.56 16.64-3.84 3.84-1.28 6.4-1.28 10.24-2.56 6.4-1.28 11.52-2.56 17.92-2.56 2.56 0 6.4-1.28 8.96-1.28 7.68-1.28 15.36-1.28 23.040-1.28 57.6-1.28 113.92 16.64 162.56 49.92 19.2 14.080 47.36 8.96 61.44-10.24 11.52-23.040 6.4-49.92-12.8-64zM833.28 208.64l-116.48 175.36h72.96c0 66.56-24.32 128-62.72 175.36v1.28c-28.16 33.28-64 61.44-104.96 78.080l-2.56 1.28c-6.4 2.56-14.080 5.12-20.48 7.68l-6.4 2.56c-6.4 1.28-12.8 3.84-19.2 5.12-2.56 1.28-5.12 1.28-8.96 2.56-6.4 1.28-12.8 2.56-19.2 2.56l-7.68 1.28c-7.68 1.28-16.64 1.28-24.32 1.28-57.6 0-113.92-16.64-161.28-49.92-20.48-14.080-47.36-8.96-61.44 10.24-14.080 20.48-8.96 47.36 10.24 61.44 62.72 43.52 134.4 65.28 208.64 66.56h6.4c8.96 0 19.2 0 29.44-1.28 3.84 0 7.68-1.28 11.52-1.28 6.4-1.28 11.52-1.28 17.92-2.56l6.4-1.28c3.84-1.28 8.96-2.56 12.8-2.56 7.68-1.28 15.36-3.84 23.040-6.4 3.84-1.28 6.4-2.56 8.96-2.56 8.96-2.56 17.92-6.4 25.6-8.96l3.84-2.56c52.48-23.040 99.84-57.6 136.96-102.4l2.56-2.56c5.12-6.4 11.52-14.080 15.36-20.48l1.28-2.56c40.96-58.88 64-130.56 64-206.080h72.96l-115.2-179.2z" />
<glyph unicode="&#xe927;" glyph-name="news" d="M252.16 405.76h384v-76.8h-384v76.8zM252.16 245.76h384v-76.8h-384v76.8zM865.28 30.72c-1.28-21.76-8.96-40.96-23.040-55.040-15.36-15.36-33.28-23.040-55.040-23.040h-633.6c-21.76 1.28-40.96 8.96-55.040 23.040-15.36 15.36-23.040 33.28-23.040 55.040v632.32c1.28 21.76 8.96 40.96 23.040 55.040 14.080 16.64 32 24.32 55.040 24.32h316.16v79.36h-316.16c-44.8-1.28-81.92-16.64-112.64-46.080-30.72-30.72-46.080-67.84-46.080-111.36v-633.6c1.28-44.8 16.64-81.92 46.080-111.36 30.72-30.72 67.84-46.080 111.36-46.080h633.6c44.8 1.28 81.92 16.64 111.36 46.080 30.72 30.72 46.080 67.84 46.080 111.36v316.16h-79.36v-316.16zM1024 663.040c0-127.246-103.154-230.4-230.4-230.4s-230.4 103.154-230.4 230.4c0 127.246 103.154 230.4 230.4 230.4s230.4-103.154 230.4-230.4z" />
<glyph unicode="&#xe928;" glyph-name="zu" d="M771.84 656.64h-330.24c-7.68 0-12.8-5.12-12.8-12.8v-330.24c0-7.68 5.12-12.8 12.8-12.8h330.24c7.68 0 12.8 5.12 12.8 12.8v330.24c0 7.68-5.12 12.8-12.8 12.8zM730.88 440.32h-85.76v-85.76h-76.8v85.76h-85.76v76.8h85.76v85.76h76.8v-85.76h85.76v-76.8zM512 896c-282.88 0-512-229.12-512-512s229.12-512 512-512 512 229.12 512 512-229.12 512-512 512zM684.8 116.48c0-38.4-30.72-69.12-69.12-69.12h-371.2c-38.4 0-69.12 30.72-69.12 69.12v371.2c0 38.4 30.72 69.12 69.12 69.12h58.88v-76.8h-51.2v-355.84h355.84v51.2h76.8v-58.88zM861.44 313.6c0-49.92-39.68-89.6-89.6-89.6h-330.24c-49.92 0-89.6 39.68-89.6 89.6v330.24c0 49.92 39.68 89.6 89.6 89.6h330.24c49.92 0 89.6-39.68 89.6-89.6v-330.24z" />
<glyph unicode="&#xe929;" glyph-name="icon-fire" horiz-adv-x="862" d="M281.796-15.49c-58.093 120.333-27.163 189.368 17.35 254.25 48.66 70.921 61.489 141.461 61.489 141.461s38.099-49.789 23.010-127.505c67.52 75.448 80.348 195.031 70.163 241.053 153.154-106.76 218.419-337.999 130.142-509.26 468.897 264.811 116.568 660.897 55.457 705.793 20.369-44.895 24.138-120.339-16.98-156.93-69.781 264.441-242.552 318.764-242.552 318.764 20.369-136.556-74.314-285.561-165.228-397.221-3.395 54.316-6.79 92.041-35.457 144.103-6.415-98.836-82.234-179.566-102.603-278.397-27.539-134.294 20.744-232.372 205.209-336.113v0 0z" />
</font>
</defs>
</svg>
